<svg xmlns="http://www.w3.org/2000/svg" width="336" height="34" fill="none" viewBox="0 0 336 34"><path stroke="#fff" stroke-miterlimit="10" stroke-opacity="0.15" stroke-width="0.5" d="M-20.52 5.786c66.484 32.54 89.171 68.427 97.394 95.652 9.175 30.383 4.443 63.591 14.348 65.653 6.342 1.321 14.146-11.079 28.696-38.262 44.121-82.428 45.12-104.318 63.918-109.999 26.334-7.964 42.567 29.505 83.045 28.697 29.729-.595 53.787-21.457 70.001-40.001"/><path stroke="#fff" stroke-miterlimit="10" stroke-opacity="0.15" stroke-width="0.5" d="M-22.117 9.058c64.612 31.84 88.603 66.723 97.477 92.237 9.917 28.514 5.233 60.006 15.035 61.496 6.302.958 13.959-11.23 28.013-37.481 42.712-79.765 44.037-101.928 62.69-107.329 26.486-7.56 42.012 32.619 82.919 33.166.892.011 1.77.011 2.649-.012 29.024-.808 53.424-21.68 69.985-40.11"/><path stroke="#fff" stroke-miterlimit="10" stroke-opacity="0.15" stroke-width="0.5" d="M-23.708 12.328c62.735 31.137 88.01 64.956 97.56 88.822 10.643 26.602 6.026 56.418 15.721 57.337 6.263.595 13.775-11.382 27.33-36.701 41.292-77.099 42.935-99.605 61.465-104.655 26.614-7.254 41.464 35.752 82.792 37.635.907.041 1.811.083 2.715.078 29.503-.163 55.172-21.466 72.551-40.321"/><path stroke="#fff" stroke-miterlimit="10" stroke-opacity="0.15" stroke-width="0.5" d="M-25.304 15.6c60.868 30.442 87.387 63.116 97.643 85.406 11.34 24.646 6.823 52.828 16.408 53.178 6.227.228 13.584-11.533 26.646-35.919 39.879-74.441 41.847-97.244 60.24-101.983C202.39 9.39 216.556 55.184 258.3 58.386c.927.072 1.852.14 2.775.17 29.981.957 56.92-21.252 75.117-40.531"/><path stroke="#fff" stroke-miterlimit="10" stroke-opacity="0.15" stroke-width="0.5" d="M-26.897 18.87c58.995 29.739 86.719 61.202 97.724 81.991 11.991 22.648 7.625 49.234 17.096 49.019 6.193-.14 13.397-11.685 25.964-35.139 38.463-71.778 40.757-94.878 59.014-99.307 26.906-6.529 40.385 42.068 82.541 46.576.946.1 1.894.198 2.844.26 30.457 1.825 58.666-21.039 77.683-40.747"/><path stroke="#fff" stroke-miterlimit="10" stroke-opacity="0.15" stroke-width="0.5" d="M-28.492 22.142c57.124 29.036 85.994 59.204 97.81 78.573 12.574 20.613 8.423 45.638 17.782 44.862 6.16-.511 13.209-11.836 25.28-34.358 37.05-69.115 39.671-92.508 57.79-96.634 27.053-6.159 39.847 45.251 82.415 51.043.967.132 1.934.265 2.909.35 30.932 2.686 60.418-20.824 80.249-40.958"/><path stroke="#fff" stroke-miterlimit="10" stroke-opacity="0.15" stroke-width="0.5" d="M-30.086 25.413c55.251 28.337 85.192 57.125 97.89 75.158 13.065 18.553 9.233 42.035 18.47 40.702 6.129-.884 13.021-11.991 24.596-33.576 35.636-66.453 38.587-90.137 56.564-93.96 27.208-5.787 39.311 48.447 82.289 55.51.991.163 1.977.33 2.973.442 31.405 3.54 62.166-20.613 82.815-41.17"/><path stroke="#fff" stroke-miterlimit="10" stroke-opacity="0.15" stroke-width="0.5" d="M-31.68 28.685c53.38 27.636 81.36 57.873 97.974 71.741 10.063 18.737 10.038 38.429 19.156 36.545 6.098-1.261 12.834-12.14 23.913-32.802 34.221-63.79 37.502-87.76 55.339-91.286 27.36-5.408 38.774 51.658 82.162 59.98 1.009.193 2.019.391 3.041.532C281.784 77.78 313.823 53 335.287 32.014"/><path stroke="#fff" stroke-miterlimit="10" stroke-opacity="0.15" stroke-width="0.5" d="M-33.274 31.956c51.508 26.935 80.245 56.367 98.057 68.326 10.189 17.072 10.843 34.816 19.842 32.385 6.069-1.639 12.646-12.288 23.23-32.016 32.801-61.127 36.419-85.381 54.114-88.613 27.514-5.024 38.236 54.882 82.036 64.45 1.029.225 2.059.455 3.106.623 32.353 5.224 65.662-20.183 87.948-41.593"/><path stroke="#fff" stroke-miterlimit="10" stroke-opacity="0.15" stroke-width="0.5" d="M-34.87 35.226c49.637 26.235 79.13 54.86 98.14 64.91 10.316 15.41 11.65 31.2 20.53 28.227 6.038-2.02 12.459-12.441 22.546-31.235 31.393-58.468 35.339-82.998 52.89-85.938 27.67-4.637 37.694 58.115 81.91 68.92 1.048.255 2.101.515 3.171.713 32.828 6.057 67.411-19.97 90.513-41.806"/><path stroke="#fff" stroke-miterlimit="10" stroke-opacity="0.15" stroke-width="0.5" d="M-36.463 38.498C11.303 64.03 41.55 91.849 61.76 99.99c10.443 13.746 12.454 27.579 21.216 24.069 6.007-2.406 12.272-12.593 21.864-30.45 29.977-55.803 34.257-80.612 51.664-83.266 27.826-4.243 37.151 61.36 81.784 73.388 1.069.288 2.142.578 3.235.805 33.306 6.884 69.16-19.757 93.08-42.018"/><path stroke="#fff" stroke-miterlimit="10" stroke-opacity="0.15" stroke-width="0.5" d="M-38.058 41.77c45.892 24.831 76.9 51.844 98.306 58.072 10.57 12.082 13.257 23.955 21.9 19.91 5.976-2.795 12.086-12.744 21.181-29.673 28.563-53.14 33.177-78.22 50.441-80.591 27.986-3.844 36.604 64.612 81.657 77.857 1.09.32 2.181.64 3.301.892 33.784 7.708 70.908-19.542 95.646-42.23"/><path stroke="#fff" stroke-miterlimit="10" stroke-opacity="0.15" stroke-width="0.5" d="M-39.651 45.041c44.02 24.13 75.781 50.336 98.388 54.66 10.696 10.418 14.057 20.326 22.59 15.751 5.939-3.185 11.896-12.896 20.496-28.893 27.153-50.476 32.098-75.826 49.214-77.917 28.144-3.438 36.053 67.878 81.532 82.326 1.109.353 2.225.702 3.369.986 34.264 8.523 72.656-19.324 98.212-42.442"/><path stroke="#fff" stroke-miterlimit="10" stroke-opacity="0.15" stroke-width="0.5" d="M-41.243 48.313C.902 71.743 33.42 97.14 57.225 99.555c10.823 8.754 14.854 16.697 23.276 11.594 5.905-3.577 11.71-13.047 19.814-28.111 25.735-47.815 31.018-73.432 47.988-75.245 28.305-3.026 35.498 71.153 81.406 86.796 1.13.385 2.267.764 3.433 1.077 34.744 9.339 74.404-19.114 100.783-42.654"/><path stroke="#fff" stroke-miterlimit="10" stroke-opacity="0.15" stroke-width="0.5" d="M-42.84 51.584c40.276 22.73 73.55 47.32 98.554 47.827 10.949 7.091 15.648 13.064 23.963 7.433 5.865-3.971 11.522-13.198 19.126-27.33 24.32-45.153 29.938-71.028 46.763-72.57 28.464-2.61 34.939 74.423 81.28 91.264 1.149.418 2.309.825 3.497 1.168 35.228 10.149 76.153-18.901 103.345-42.866"/><path stroke="#fff" stroke-miterlimit="10" stroke-opacity="0.15" stroke-width="0.5" d="M-44.434 54.855C-6.03 76.883 28 100.668 54.202 99.265c11.077 5.427 16.44 9.431 24.65 3.277 5.826-4.367 11.335-13.35 18.448-26.55 22.906-42.49 28.858-68.623 45.539-69.897 28.623-2.185 34.375 77.71 81.152 95.729 1.17.45 2.351.886 3.568 1.258 35.708 10.962 77.896-18.681 105.905-43.068"/><path stroke="#fff" stroke-miterlimit="10" stroke-opacity="0.15" stroke-width="0.5" d="M-46.028 58.127C-9.496 79.454 25.29 102.429 52.69 99.122c11.198 3.765 17.228 5.794 25.337-.883 5.781-4.762 11.147-13.502 17.763-25.766 21.492-39.826 27.78-66.215 44.314-67.221 28.783-1.754 33.808 80.997 81.027 100.202 1.189.484 2.392.947 3.628 1.349 36.2 11.757 79.653-18.477 108.476-43.293"/><path stroke="#fff" stroke-miterlimit="10" stroke-opacity="0.15" stroke-width="0.5" d="M-47.623 61.402c34.66 20.626 70.202 42.797 98.801 37.578 11.33 2.1 18.014 2.16 26.023-5.04 5.738-5.153 10.96-13.653 17.081-24.989 20.077-37.162 26.7-63.804 43.089-64.549 28.944-1.32 33.237 84.287 80.902 104.666a53.277 53.277 0 0 0 3.692 1.44c36.691 12.563 81.399-18.259 111.043-43.504"/><path stroke="#fff" stroke-miterlimit="10" stroke-opacity="0.15" stroke-width="0.5" d="M-49.217 64.672c32.788 19.919 68.71 28.844 98.885 34.159 11.29 1.989 18.797-1.476 26.71-9.2 5.69-5.549 10.773-13.804 16.397-24.207 18.663-34.501 25.619-61.389 41.864-61.875 29.101-.871 32.659 87.59 80.775 109.142a53.891 53.891 0 0 0 3.758 1.53c37.18 13.361 83.143-18.046 113.609-43.713"/><path stroke="#fff" stroke-miterlimit="10" stroke-opacity="0.15" stroke-width="0.5" d="M-50.811 67.942c30.918 19.226 67.287 36.992 98.967 30.747 11.428-2.254 19.577-5.11 27.397-13.359 5.642-5.946 10.585-13.955 15.714-23.427 17.249-31.838 24.538-58.97 40.638-59.2 29.258-.42 32.079 90.891 80.649 113.61a54.726 54.726 0 0 0 3.824 1.621c37.701 14.082 84.894-17.833 116.178-43.927"/><path stroke="#fff" stroke-miterlimit="10" stroke-opacity="0.15" stroke-width="0.5" d="M-52.405 71.213c29.045 18.524 66.417 36.888 99.05 27.33C58.222 95.152 67 89.798 74.73 81.026c5.592-6.342 10.397-14.107 15.03-22.645 15.835-29.177 23.457-56.618 39.414-56.528 29.413.166 31.46 94.266 80.522 118.079a53.355 53.355 0 0 0 3.889 1.712c38.184 14.915 86.644-17.618 118.742-44.137"/><path stroke="#fff" stroke-miterlimit="10" stroke-opacity="0.15" stroke-width="0.5" d="M-54 74.483c27.173 17.822 65.739 36.765 99.133 23.913C95.475 79.018 99.831.547 126.44 1.003c30.334.52 30.955 102.606 84.35 124.351 38.666 15.747 88.396-17.404 121.308-44.35"/></svg>