<svg xmlns="http://www.w3.org/2000/svg" width="162" height="31" fill="none" viewBox="0 0 162 31"><path stroke="#fff" stroke-miterlimit="10" stroke-opacity="0.15" stroke-width="0.552906" d="M23.675-6.972C25 7.13 44.318 16.926 59.143 17.423c17.084.57 24.076-11.348 36.9-7.041 11.704 3.926 11.86 15.865 20.492 18.139 7.933 2.09 20.939-4.532 43.456-39.212"/><path stroke="#fff" stroke-miterlimit="10" stroke-opacity="0.15" stroke-width="0.552906" d="M159.066-12.315c-22.239 34.177-35.265 41.076-43.326 39.3-5.974-1.324-8.032-7.211-12.537-11.946a19.996 19.996 0 0 0-8.192-5.348c-10.255-3.535-16.76 2.958-28.001 5.358-2.866.62-5.795.901-8.726.838-14.895-.275-34.046-8.876-35.7-22.482"/><path stroke="#fff" stroke-miterlimit="10" stroke-opacity="0.15" stroke-width="0.552906" d="M158.14-13.935c-21.962 33.671-35 40.846-43.173 39.382-6.007-1.076-8.214-6.694-12.74-11.199A21.637 21.637 0 0 0 94.004 9c-10.103-3.58-16.575 2.242-27.849 4.505a42.344 42.344 0 0 1-8.706.843C42.482 14.25 23.498 6.892 21.516-6.218"/><path stroke="#fff" stroke-miterlimit="10" stroke-opacity="0.15" stroke-width="0.552906" d="M157.215-15.551c-21.679 33.158-34.737 40.605-43.031 39.461-6.045-.833-8.393-6.176-12.946-10.455a23.571 23.571 0 0 0-8.244-5.147c-9.961-3.624-16.379 1.529-27.696 3.651a48.194 48.194 0 0 1-8.695.857c-15.037.104-33.854-6.037-36.164-18.65"/><path stroke="#fff" stroke-miterlimit="10" stroke-opacity="0.15" stroke-width="0.552906" d="M156.292-17.178c-21.403 32.66-34.47 40.375-42.892 39.55-6.076-.592-8.577-5.661-13.155-9.706a25.947 25.947 0 0 0-8.278-5.05c-9.818-3.667-16.188.813-27.555 2.798a56.607 56.607 0 0 1-8.664.86C40.64 11.581 21.99 6.655 19.35-5.462"/><path stroke="#fff" stroke-miterlimit="10" stroke-opacity="0.15" stroke-width="0.552906" d="M155.377-18.798c-21.132 32.156-34.23 40.375-42.763 39.637-6.09-.52-8.76-5.132-13.358-8.962a28.998 28.998 0 0 0-8.309-4.95c-9.676-3.712-15.993.098-27.393 1.943a67.482 67.482 0 0 1-8.642.87C39.73 10.26 21.249 6.542 18.28-5.082"/><path stroke="#fff" stroke-miterlimit="10" stroke-opacity="0.15" stroke-width="0.552906" d="M154.442-20.42c-20.843 31.65-33.932 39.888-42.61 39.735-6.128-.14-8.951-4.63-13.566-8.233a32.893 32.893 0 0 0-8.338-4.848c-9.534-3.757-15.806-.617-27.24 1.089-2.857.44-5.734.732-8.62.876-15.255.722-33.57-1.773-36.865-12.907"/><path stroke="#fff" stroke-miterlimit="10" stroke-opacity="0.15" stroke-width="0.552906" d="M153.517-22.043c-20.558 31.148-33.662 39.659-42.47 39.807-6.154.112-9.146-4.078-13.773-7.47a37.99 37.99 0 0 0-8.367-4.744c-9.388-3.804-15.615-1.337-27.087.236-2.67.363-5.517.698-8.6.885-15.328.931-33.472-.366-37.096-11"/><path stroke="#fff" stroke-miterlimit="10" stroke-opacity="0.15" stroke-width="0.552906" d="M152.593-23.666c-20.286 30.641-33.391 39.402-42.329 39.898-6.181.341-9.344-3.55-13.986-6.727A45.493 45.493 0 0 0 87.88 4.86c-9.246-3.848-15.423-2.048-26.934-.62-2.68.333-5.52.664-8.58.893-15.382 1.14-33.368 1.052-37.32-9.083"/><path stroke="#fff" stroke-miterlimit="10" stroke-opacity="0.15" stroke-width="0.552906" d="M151.667-25.285C131.661 4.85 118.548 13.862 109.479 14.69c-6.205.567-9.552-3.014-14.185-5.978a56.794 56.794 0 0 0-8.424-4.547C77.765.272 71.635 1.4 60.086 2.7c-2.68.304-5.521.635-8.56.904C36.057 4.964 18.248 6.08 13.969-3.56"/><path stroke="#fff" stroke-miterlimit="10" stroke-opacity="0.15" stroke-width="0.552906" d="M150.743-26.908c-19.727 29.633-32.848 38.892-42.041 40.062-6.231.792-9.752-2.475-14.394-5.236a76.33 76.33 0 0 0-8.453-4.444c-8.96-3.937-15.043-3.478-26.631-2.33-2.69.27-5.524.604-8.537.91-15.545 1.579-33.183 3.895-37.795-5.25"/><path stroke="#fff" stroke-miterlimit="10" stroke-opacity="0.15" stroke-width="0.552906" d="M149.818-28.53C130.369.597 117.236 10.105 107.911 11.618c-6.258 1.014-9.956-1.934-14.597-4.492-2.668-1.469-5.4-2.953-8.484-4.344C76.012-1.196 69.977-1.41 58.35-.4c-2.695.238-5.525.574-8.52.918-15.618 1.798-33.087 5.314-38.025-3.336"/><path stroke="#fff" stroke-miterlimit="10" stroke-opacity="0.15" stroke-width="0.552906" d="M148.893-30.152C129.722-1.538 116.595 8.222 107.128 10.08c-6.285 1.238-10.167-1.387-14.805-3.745-2.737-1.392-5.48-2.838-8.513-4.244-8.676-4.03-14.66-4.906-26.326-4.035-2.7.204-5.529.543-8.495.926C33.301 1.005 15.998 5.716 10.732-2.44"/><path stroke="#fff" stroke-miterlimit="10" stroke-opacity="0.15" stroke-width="0.552906" d="M147.975-31.774C129.079-3.657 115.929 6.335 106.346 8.54c-6.311 1.455-10.378-.837-15.013-3-2.809-1.312-5.557-2.721-8.532-4.143-8.536-4.068-14.468-5.623-26.183-4.892-2.71.174-5.53.516-8.473.934C32.383-.308 15.248 5.6 9.655-2.064"/><path stroke="#fff" stroke-miterlimit="10" stroke-opacity="0.15" stroke-width="0.552906" d="M147.043-33.393c-18.612 27.611-31.765 37.838-41.482 40.4-6.341 1.673-10.59-.282-15.218-2.255-2.88-1.226-5.64-2.605-8.573-4.042-8.388-4.112-14.277-6.336-26.02-5.745a83.13 83.13 0 0 0-8.454.95c-15.83 2.47-32.806 9.563-38.72 2.402"/><path stroke="#fff" stroke-miterlimit="10" stroke-opacity="0.15" stroke-width="0.552906" d="M146.119-35.016C127.784-7.91 114.608 2.56 104.785 5.471c-6.37 1.89-10.805.275-15.435-1.511-2.952-1.14-5.718-2.488-8.6-3.942-8.248-4.156-14.087-7.052-25.862-6.598a65.955 65.955 0 0 0-8.433.951C30.55-2.911 13.747 5.361 7.495-1.297"/><path stroke="#fff" stroke-miterlimit="10" stroke-opacity="0.15" stroke-width="0.552906" d="M145.195-36.637C127.14-10.035 113.939.66 103.993 3.936c-6.394 2.102-11.017.837-15.632-.764-3.023-1.051-5.795-2.375-8.628-3.844-8.103-4.2-13.898-7.765-25.717-7.451a54.785 54.785 0 0 0-8.411.959C29.635-4.221 12.996 5.243 6.417-.928"/><path stroke="#fff" stroke-miterlimit="10" stroke-opacity="0.15" stroke-width="0.552906" d="M144.268-38.258c-17.775 26.086-30.98 37.025-41.058 40.656-6.431 2.32-11.232 1.407-15.838-.017-3.106-.958-5.876-2.257-8.66-3.744-7.96-4.24-13.705-8.48-25.564-8.306-2.82.07-5.627.394-8.39.967C28.72-5.522 12.246 5.128 5.339-.55"/><path stroke="#fff" stroke-miterlimit="10" stroke-opacity="0.15" stroke-width="0.552906" d="M143.344-39.882C125.859-14.289 112.625-3.132 102.426.851c-6.463 2.53-11.442 1.977-16.044.722-3.17-.871-5.958-2.142-8.688-3.643-7.818-4.29-13.515-9.196-25.412-9.155a41.266 41.266 0 0 0-8.368.975C27.806-6.83 11.484 4.991 4.261-.184"/><path stroke="#fff" stroke-miterlimit="10" stroke-opacity="0.15" stroke-width="0.552906" d="M142.42-41.503C125.203-16.416 111.958-5.03 101.643-.676 95.144 2.068 89.988 1.877 85.391.797 82.148.034 79.357-1.23 76.674-2.75c-7.673-4.334-13.323-9.91-25.259-10.013-2.81.005-5.611.335-8.346.983C26.893-8.115 10.745 4.89 3.182.204"/><path stroke="#fff" stroke-miterlimit="10" stroke-opacity="0.15" stroke-width="0.552906" d="M141.493-43.123C124.555-18.542 111.291-6.94 100.867-2.21 94.334.741 89.004.918 84.411.005c-3.315-.657-6.114-1.91-8.746-3.44-7.533-4.38-13.135-10.628-25.108-10.868a32.985 32.985 0 0 0-8.328.991C26-9.379 10.004 4.772 2.11.584"/><path stroke="#fff" stroke-miterlimit="10" stroke-opacity="0.15" stroke-width="0.552906" d="M140.571-44.745C113.537-5.668 95.376 1.165 83.411-.785 70.349-2.915 65.893-15.333 49.68-15.85 30.662-16.453 10.637 5.281 1.025.96"/></svg>