<svg xmlns="http://www.w3.org/2000/svg" width="102" height="24" fill="none" viewBox="0 0 102 24"><g clip-path="url(#a)"><path fill="#fff" d="M10.289 9.76h6.48v7.769a9.98 9.98 0 0 1-3.086 1.544 12.137 12.137 0 0 1-3.442.483 11.67 11.67 0 0 1-4.221-.696 9.761 9.761 0 0 1-3.229-2.003A8.933 8.933 0 0 1 .733 13.78 9.933 9.933 0 0 1 0 9.937c-.018-1.324.214-2.64.686-3.878A8.72 8.72 0 0 1 2.7 3.002a8.755 8.755 0 0 1 3.095-1.965A11.244 11.244 0 0 1 9.887.33a11.64 11.64 0 0 1 2.188.189c.638.11 1.264.283 1.868.518.552.2 1.08.46 1.573.778.464.292.9.628 1.3 1.002L15.635 4.55a1.037 1.037 0 0 1-.686.507 1.257 1.257 0 0 1-.91-.212 11.941 11.941 0 0 0-.923-.507 6.908 6.908 0 0 0-.946-.4 9.07 9.07 0 0 0-1.112-.26 9.42 9.42 0 0 0-1.371-.083 6.143 6.143 0 0 0-2.366.448 5.05 5.05 0 0 0-1.774 1.285 5.749 5.749 0 0 0-1.182 2.004c-.28.84-.416 1.72-.402 2.605a8.227 8.227 0 0 0 .437 2.782 5.76 5.76 0 0 0 1.254 2.063 5.17 5.17 0 0 0 1.928 1.285 6.786 6.786 0 0 0 2.542.436 7.12 7.12 0 0 0 1.703-.177 9.609 9.609 0 0 0 1.443-.519v-3.17h-2.176a.853.853 0 0 1-.591-.19.696.696 0 0 1-.213-.518zm17.526 1.332a3.527 3.527 0 0 0-.154-1.072 2.484 2.484 0 0 0-.461-.896 2.234 2.234 0 0 0-.828-.601 2.602 2.602 0 0 0-1.182-.236 2.728 2.728 0 0 0-2.01.719 3.778 3.778 0 0 0-.959 2.086zm-5.641 2.122a4.235 4.235 0 0 0 1.064 2.747 3.276 3.276 0 0 0 2.366.872c.432.01.863-.05 1.277-.177.326-.1.643-.23.946-.389l.745-.389c.203-.111.43-.172.662-.177a.747.747 0 0 1 .65.319l1.041 1.296c-.365.422-.787.79-1.253 1.097-.45.28-.93.509-1.431.683-.488.166-.991.28-1.502.342-.482.07-.968.105-1.455.106a7.401 7.401 0 0 1-2.625-.46 6.187 6.187 0 0 1-2.129-1.402 6.786 6.786 0 0 1-1.419-2.252 8.532 8.532 0 0 1-.52-3.088 7.383 7.383 0 0 1 .449-2.57 6.055 6.055 0 0 1 3.359-3.513 6.724 6.724 0 0 1 2.732-.542 6.44 6.44 0 0 1 2.365.424 5.04 5.04 0 0 1 1.868 1.18 5.278 5.278 0 0 1 1.183 1.92 6.96 6.96 0 0 1 .437 2.582c.014.22.014.44 0 .66a1.177 1.177 0 0 1-.13.413.508.508 0 0 1-.248.224 1.79 1.79 0 0 1-.402 0zM36.59 7.532c.261-.252.538-.488.828-.707.293-.217.605-.407.934-.566a4.741 4.741 0 0 1 1.053-.353 5.1 5.1 0 0 1 1.182-.142c.682-.018 1.36.11 1.987.377a3.89 3.89 0 0 1 1.42 1.061c.403.466.7 1.013.874 1.604.205.664.305 1.356.296 2.05v8.488h-3.548v-8.487a2.576 2.576 0 0 0-.52-1.733 1.869 1.869 0 0 0-1.526-.613 3.214 3.214 0 0 0-1.419.318 4.73 4.73 0 0 0-1.265.908v9.607h-3.548V5.976h2.14a.865.865 0 0 1 .9.625zM51.633 0v19.332h-3.548V0zm9.047 5.752a7.567 7.567 0 0 1 2.743.484 6.032 6.032 0 0 1 3.489 3.525c.33.918.49 1.888.473 2.864a8.226 8.226 0 0 1-.473 2.888 5.972 5.972 0 0 1-3.489 3.548 7.565 7.565 0 0 1-2.743.483 7.767 7.767 0 0 1-2.732-.483 6.01 6.01 0 0 1-3.548-3.536 7.958 7.958 0 0 1-.485-2.889 7.828 7.828 0 0 1 .485-2.864c.3-.804.767-1.535 1.372-2.145a5.986 5.986 0 0 1 2.176-1.38 7.768 7.768 0 0 1 2.732-.483zm0 11.093a2.61 2.61 0 0 0 2.27-1.05c.56-.95.82-2.047.745-3.147a5.361 5.361 0 0 0-.745-3.123 2.564 2.564 0 0 0-2.27-1.073 2.62 2.62 0 0 0-2.365 1.073 5.361 5.361 0 0 0-.746 3.123 5.479 5.479 0 0 0 .745 3.148 2.647 2.647 0 0 0 2.366 1.06zm13.836-4.715a2.137 2.137 0 0 0 1.62-.554c.362-.396.553-.916.533-1.45a1.928 1.928 0 0 0-.533-1.438 2.178 2.178 0 0 0-1.632-.437 2.207 2.207 0 0 0-1.632.53 1.968 1.968 0 0 0-.52 1.439c-.017.532.169 1.05.52 1.45a2.175 2.175 0 0 0 1.632.495zm3.394 7.72a.74.74 0 0 0-.224-.565 1.634 1.634 0 0 0-.604-.354c-.28-.09-.57-.15-.863-.177-.343 0-.698-.07-1.088-.094H73.95c-.403 0-.805 0-1.183-.094a2.72 2.72 0 0 0-.757.648 1.317 1.317 0 0 0-.284.825c-.003.21.046.416.142.601.125.2.3.363.509.472.29.145.601.245.922.295.473.082.951.121 1.431.118a8.92 8.92 0 0 0 1.502-.118c.344-.058.676-.173.982-.342a1.11 1.11 0 0 0 .532-.507c.121-.203.179-.436.165-.672zm3.548-13.46v1.344a.658.658 0 0 1-.177.483 1.184 1.184 0 0 1-.58.283l-1.088.212c.149.441.225.903.225 1.368a3.833 3.833 0 0 1-.426 1.803 4.08 4.08 0 0 1-1.111 1.356c-.507.39-1.08.685-1.692.872a7.114 7.114 0 0 1-2.105.295 6.99 6.99 0 0 1-1.348-.118c-.355.224-.544.471-.544.742a.553.553 0 0 0 .367.543c.308.132.635.216.97.247.413 0 .875.071 1.383.095.509.023 1.04 0 1.573.07a13.29 13.29 0 0 1 1.573.236 4.23 4.23 0 0 1 1.384.53c.4.24.735.576.97.979a2.86 2.86 0 0 1 .378 1.568c0 .604-.15 1.2-.438 1.732a4.72 4.72 0 0 1-1.289 1.51 6.74 6.74 0 0 1-2.058 1.06 8.787 8.787 0 0 1-2.779.401 10.674 10.674 0 0 1-2.696-.295 6.006 6.006 0 0 1-1.88-.778 3.34 3.34 0 0 1-1.112-1.12 2.682 2.682 0 0 1-.367-1.32 2.283 2.283 0 0 1 .544-1.52 3.845 3.845 0 0 1 1.514-.99 2.361 2.361 0 0 1-.816-.743 2.188 2.188 0 0 1-.307-1.179c.02-.454.172-.892.437-1.261a3.38 3.38 0 0 1 1.348-1.108c-.66-.33-1.22-.83-1.62-1.45a3.787 3.787 0 0 1-.603-2.134 3.89 3.89 0 0 1 .414-1.85 4.128 4.128 0 0 1 1.183-1.368 4.985 4.985 0 0 1 1.714-.86 7.355 7.355 0 0 1 2.105-.283 6.439 6.439 0 0 1 3.028.683zm5.558-.448v13.403H83.47V5.976zm.497-3.76a1.83 1.83 0 0 1-.19.837 2.343 2.343 0 0 1-.484.695c-.21.197-.454.353-.721.46a2.146 2.146 0 0 1-.875.165 2.13 2.13 0 0 1-1.526-.625 2.358 2.358 0 0 1-.485-.695 1.999 1.999 0 0 1-.165-.837 2.01 2.01 0 0 1 .165-.849 2.32 2.32 0 0 1 .485-.695c.196-.2.429-.36.686-.472.237-.097.489-.153.745-.165.3 0 .596.055.875.165.267.112.512.272.721.472.203.2.367.436.485.695.163.256.26.547.284.849m5.913 5.351c.263-.255.544-.49.84-.707.288-.217.597-.407.922-.566a4.742 4.742 0 0 1 1.053-.353c.387-.093.784-.14 1.182-.142a4.743 4.743 0 0 1 1.94.377c.549.24 1.034.603 1.419 1.061.42.462.735 1.009.922 1.604.205.664.305 1.356.296 2.05v8.488h-3.548v-8.487c.04-.62-.14-1.233-.508-1.733a1.903 1.903 0 0 0-1.538-.613 3.213 3.213 0 0 0-1.419.318 4.73 4.73 0 0 0-1.265.908v9.607h-3.548V5.976h2.223a.866.866 0 0 1 .887.625z"/></g><defs><clipPath id="a"><path fill="#fff" d="M0 0h102v24H0z"/></clipPath></defs></svg>