<svg xmlns="http://www.w3.org/2000/svg" width="178" height="164" fill="none" viewBox="0 0 178 164"><path fill="#555" fill-rule="evenodd" d="M120.102 156.944c0 1.16-14.922 2.1-33.33 2.1-18.409 0-33.332-.94-33.332-2.1 0-1.159 14.923-2.099 33.332-2.099 18.408 0 33.33.94 33.33 2.099" clip-rule="evenodd"/><path stroke="#555" stroke-dasharray="7" stroke-width="2" d="M82.561 22.045c-18.182 1.54-24.865 16.93-19.39 25.901 3.863 6.33 10.408 14.884 22.61 12.832 12.202-2.052 13.23-13.344 6.804-14.88-6.426-1.536-29.319 5.628-26.732 22.177C67.721 80.016 83.91 83.458 83.91 83.458"/><path fill="#555" fill-rule="evenodd" d="M93.07 12.598s2.606-6.807 2.88-9.454c.145-1.384-2.148-5.235-4.83-1.672-2.684 3.563-1.46 7.931 1.95 11.126m-9.245-7.413c-3.052-1.032-4.434-.227-5.023 1.38-.589 1.606.234 4.665 4.837 5.362 4.604.697 9.169.67 9.169.67s-5.93-6.38-8.983-7.412m8.728 8.761c.07-.284.161-.557.263-.823-.563.089-1.137.214-1.714.383-.626.183-1.21.423-1.76.698a6.24 6.24 0 0 0-.557 1.45c-.773 3.183 1.053 6.391 4.12 7.442.333-.066.667-.142 1.001-.24a13.336 13.336 0 0 0 2.575-1.056c-2.996-1.314-4.72-4.595-3.928-7.854" clip-rule="evenodd"/><path fill="#555" fill-rule="evenodd" d="M88.173 15.606c.073-.314.173-.615.283-.909-2.654 1.7-4.14 4.34-3.895 5.879-1.697.729-2.777 1.343-2.777 1.343s1.28-.098 3.145-.456c.998 1.46 3.767 2.436 6.828 2.086-2.773-1.434-4.338-4.698-3.584-7.943m8.707 1.228a1.23 1.23 0 0 1 .571-2.39 1.23 1.23 0 0 1-.571 2.39m-3.065-3.645a5.933 5.933 0 0 0-.322.956 5.861 5.861 0 0 0 3.638 6.85c2.274-1.42 3.551-3.433 3.033-5.18-.576-1.96-3.225-2.972-6.35-2.626" clip-rule="evenodd"/><path fill="#4F4F4F" fill-rule="evenodd" d="M55.41 135.948h65.365a3.005 3.005 0 0 0 3.001-3.008V89.098a3.012 3.012 0 0 0-3.008-3.015H53.824c-.792 0-1.434.644-1.434 1.438v45.399a3.024 3.024 0 0 0 3.02 3.028" clip-rule="evenodd"/><path fill="#383838" fill-rule="evenodd" d="M55.37 135.424h7.932c.06 0 .11-.05.11-.111V79.896a.11.11 0 0 0-.11-.111H55.37a2.975 2.975 0 0 0-2.98 2.971v49.696a2.976 2.976 0 0 0 2.98 2.972" clip-rule="evenodd"/><path fill="url(#a)" fill-rule="evenodd" d="M107.341 117.052h20.524a.11.11 0 0 0 .11-.112v-12.373a.11.11 0 0 0-.11-.112h-20.524c-1.649 0-2.986 1.353-2.986 3.022v6.553c0 1.669 1.337 3.022 2.986 3.022" clip-rule="evenodd"/><path fill="#414141" fill-rule="evenodd" d="M111.858 79.785H55.442v.007a3.135 3.135 0 0 0-3.052 3.142 3.135 3.135 0 0 0 3.052 3.143v.006h59.824c.061 0 .111-.05.111-.111V83.33c0-1.959-1.576-3.546-3.519-3.546" clip-rule="evenodd"/><path fill="#4F4F4F" fill-rule="evenodd" d="M114.328 110.753a2.624 2.624 0 1 1-5.249.001 2.624 2.624 0 0 1 5.249-.001" clip-rule="evenodd"/><path stroke="#3A3A3A" stroke-linecap="round" stroke-width="2.921" d="M6.724 97.63v1.576m-3.15 0 1.05 1.049M2 102.355h1.575m-.001 3.149 1.05-1.049m2.1 2.624v-1.575m3.15 0-1.05-1.049m2.624-2.1H9.873m.001-3.149-1.05 1.049m78.734-67.187v1.05m-2.624 1.575h1.05m1.574 3.149v-1.05m3.15-1.574h-1.05M29.82 74.535v1.575m-4.724 3.15h1.574m2.624 4.199v-1.575m4.725-2.624h-1.575m104.455 50.39a2.1 2.1 0 1 1-2.1 2.1m12.037 26.528a3.425 3.425 0 0 1-2.893 3.88 3.413 3.413 0 0 1-3.86-2.907c-.267-1.875 1.028-3.613 2.893-3.881"/><path fill="#454545" fill-rule="evenodd" d="M146.872 109.703c1.273-.402 3.223-1.978 3.675-3.674.409 1.499 2.125 3.272 3.674 3.407-1.743.625-3.41 2.483-3.674 3.942-.181-1.488-2.485-3.458-3.675-3.675M15.123 128.862c.636-.201 1.611-.989 1.837-1.837.204.749 1.062 1.636 1.837 1.703-.872.313-1.705 1.241-1.837 1.971-.09-.743-1.243-1.729-1.837-1.837" clip-rule="evenodd"/><path fill="#4D4D4D" fill-rule="evenodd" d="M26.67 59.314a1.575 1.575 0 1 1-3.149 0 1.575 1.575 0 0 1 3.15 0" clip-rule="evenodd"/><path fill="#454545" fill-rule="evenodd" d="M177.841 56.164a2.1 2.1 0 1 1-4.2 0 2.1 2.1 0 0 1 4.2 0" clip-rule="evenodd"/><path stroke="#3A3A3A" stroke-linecap="round" stroke-width="2.921" d="M57.115 48.291a1.575 1.575 0 1 1-3.15 0 1.575 1.575 0 0 1 3.15 0Zm-24.449 99.592a2.1 2.1 0 1 1-1.493-3.924 2.1 2.1 0 0 1 1.493 3.924Z" clip-rule="evenodd"/><defs><linearGradient id="a" x1="104.355" x2="127.975" y1="110.753" y2="110.753" gradientUnits="userSpaceOnUse"><stop stop-color="#6381FC"/><stop offset="1" stop-color="#5576FF"/></linearGradient></defs></svg>