<svg xmlns="http://www.w3.org/2000/svg" width="15" height="15" fill="none" viewBox="0 0 15 15"><script/><g clip-path="url(#a)"><path fill="#5671FF" d="M13.49 6.908c-.451.506-.892 1.05-1.2 1.802a.917.917 0 0 1-1.701-.002c-.357-.874-.897-1.47-1.422-2.044-.13-.145-.262-.29-.39-.44l-.019.008c-.51.154-.903.83-.667 1.38.161.376 1.29.305 1.194 1.117-.08.664.788.839 1.096.807.308-.037.782.505.543.745-.237.239-.685.248-.616.864.018.18.56.156.56.428 0 .273-.28.583-.064.899a.733.733 0 0 0 .145.163 5.81 5.81 0 0 1-3.945 1.542A5.83 5.83 0 0 1 1.18 8.354c0-.975.242-1.895.667-2.704-.002 1.046.557 1.915.819 2.177.855.853 2.094.584 2.253 1.3.16.712-.85.714-.784 1.26.069.546 1.386.691 1.092 1.195-.389.669.262.717.073 1.542-.1.451.55.538.791.196.184-.262.147-.584.518-.977.452-.483 1.503-.561 1.386-1.36-.2-1.323-1.488-1.53-2.049-1.84-.636-.35-.48-1.19-.618-1.59-.193-.567-.848.16-1.198-.172-.575-.542.104-1.31.586-1.294 1.019.032 1.332 1.023 1.706.989.366-.033.603-.543.667-.814.136-.591-.23-.327-.377-.635-.198-.411.694-.805 1.04-1.108a.463.463 0 0 0 .112-.131c.103-.202-.032-.356-.262-.497-.46-.278-1.3-.499-1.338-.933-.023-.267.487-.396 1.069-.419.096.005.19.014.287.023.048-.273.127-.542.232-.8A6.654 6.654 0 0 0 .357 8.353a6.654 6.654 0 0 0 6.647 6.648 6.654 6.654 0 0 0 6.647-6.647c0-.497-.056-.982-.161-1.446M11.128.015c-1.876.178-3.16 1.996-2.833 3.852.332 1.885 2.07 2.465 2.933 4.582.078.19.346.191.424 0 .956-2.347 2.99-2.805 2.99-5.247A3.202 3.202 0 0 0 11.128.015m.312 4.877a1.69 1.69 0 1 1 0-3.38 1.69 1.69 0 0 1 0 3.38"/></g><defs><clipPath id="a"><path fill="#fff" d="M0 0h15v15H0z"/></clipPath></defs><script/></svg>