<svg xmlns="http://www.w3.org/2000/svg" width="26" height="27" fill="none" viewBox="0 0 26 27"><path fill="#5D7DFE" d="m25.44 20.109.006-.004h-.011l-6.35-3.44-6.362-3.448-6.361 3.447L.01 20.105H0l.006.003-.006.004h.01l6.352 3.44L12.723 27l6.361-3.447 6.351-3.441h.01z"/><path fill="#D2DFFF" d="m25.44 6.892.006-.003h-.011l-6.35-3.442L12.722 0l-6.36 3.447L.01 6.89H0l.006.002L0 6.895h.01l6.352 3.441 6.361 3.447 6.361-3.447 6.351-3.441h.01z"/><path fill="#B1C7FF" d="M.01 6.611V20.39l12.712-6.89zm25.425 0V20.39L12.723 13.5z"/></svg>